# File created by Blade
# Date/Time:  Wed Apr 08 17:31:39 2015
# Frame Rate: 120.000 fps
#------------------------------------------------------
:FULLY-SPECIFIED
:DEGREES
956
root 3.542399 36.397770 -0.258594 -507.505270 -85.597472 534.109101
Spine -21.080440 0.810086 -2.552446
Head 2.474685 10.626833 4.841137
LeftShoulder -7.613377 17.200291 24.553889
LeftArm 18.107320 -20.414519 -52.317096
LeftForeArm 23.406143 0.000000 28.693248
LeftHand -11.106667 0.000000 -10.104561
LeftHandThumb1 -26.253704 0.000000 33.147579
RightShoulder -29.334354 -44.671230 -3.153260
RightArm 52.138796 26.982771 55.844155
RightForeArm 1.078531 -0.000000 15.479983
RightHand 0.677323 -0.000000 5.051022
RightHandThumb1 -24.326973 -0.000000 -32.862282
LeftUpLeg -30.029752 14.022459 1.102662
LeftLeg 11.625446 -0.000000 -0.000000
LeftFoot -10.184229 6.758520 -17.205047
LeftToeBase -7.345117 -0.000000 0.000000
RightUpLeg -29.472850 -8.395717 -3.678947
RightLeg 8.812135 -0.000000 -0.000000
RightFoot -9.022265 -8.415564 21.269498
RightToeBase 14.336022 -0.000000 -0.000000
957
root 3.522341 36.400926 -0.253718 -507.534616 -85.451506 534.176448
Spine -21.415190 0.857227 -2.711485
Head 2.643853 10.749279 4.906346
LeftShoulder -7.677430 17.163559 24.664972
LeftArm 17.860438 -20.838609 -51.361617
LeftForeArm 23.276359 -0.000000 28.538250
LeftHand -10.996636 -0.000000 -10.208884
LeftHandThumb1 -26.253704 0.000000 33.147579
RightShoulder -29.219372 -44.633105 -3.438543
RightArm 52.101228 27.739836 55.555369
RightForeArm 1.217834 -0.000000 15.027100
RightHand 0.618725 0.000000 5.370032
RightHandThumb1 -24.326973 -0.000000 -32.862282
LeftUpLeg -29.988984 13.963953 1.091677
LeftLeg 11.633451 -0.000000 -0.000000
LeftFoot -10.363901 6.941869 -17.172172
LeftToeBase -7.671352 -0.000000 0.000000
RightUpLeg -29.531392 -8.429947 -3.683343
RightLeg 8.841383 -0.000000 -0.000000
RightFoot -8.949014 -8.301521 21.206230
RightToeBase 14.330403 -0.000000 -0.000000
958
root 3.500608 36.403822 -0.252157 -507.615830 -85.362670 534.285094
Spine -21.731870 0.859183 -2.833183
Head 2.832239 10.848692 4.970487
LeftShoulder -7.766947 17.166276 24.743985
LeftArm 17.696849 -21.324940 -50.425755
LeftForeArm 23.215749 -0.000000 28.342560
LeftHand -10.975543 -0.000000 -10.529623
LeftHandThumb1 -26.253704 0.000000 33.147579
RightShoulder -28.948875 -44.478924 -3.906222
RightArm 51.849757 28.440418 55.290435
RightForeArm 1.353223 -0.000000 14.630265
RightHand 0.578568 -0.000000 5.585733
RightHandThumb1 -24.326973 -0.000000 -32.862282
LeftUpLeg -29.947615 13.878724 1.116466
LeftLeg 11.647609 -0.000000 -0.000000
LeftFoot -10.514433 7.115207 -17.175075
LeftToeBase -7.963935 -0.000000 0.000000
RightUpLeg -29.560031 -8.523093 -3.643204
RightLeg 8.858545 -0.000000 -0.000000
RightFoot -8.884750 -8.185514 21.111416
RightToeBase 14.309585 -0.000000 -0.000000
959
root 3.474686 36.406186 -0.250164 -507.713089 -85.276236 534.406105
Spine -22.057266 0.842846 -2.937115
Head 3.077112 10.947688 5.029014
LeftShoulder -7.842870 17.132176 24.829352
LeftArm 17.456093 -21.754348 -49.462780
LeftForeArm 23.160626 -0.000000 28.116672
LeftHand -10.885693 -0.000000 -10.766214
LeftHandThumb1 -26.253704 0.000000 33.147579
RightShoulder -28.703659 -44.338707 -4.347366
RightArm 51.565332 29.060508 54.868215
RightForeArm 1.701757 0.000000 14.274001
RightHand 0.411649 -0.000000 5.745154
RightHandThumb1 -24.326973 -0.000000 -32.862282
LeftUpLeg -29.897114 13.800753 1.141298
LeftLeg 11.671270 -0.000000 -0.000000
LeftFoot -10.695751 7.270757 -17.217756
LeftToeBase -8.347377 -0.000000 0.000000
RightUpLeg -29.571921 -8.620540 -3.604385
RightLeg 8.863914 -0.000000 -0.000000
RightFoot -8.831287 -8.052016 21.066782
RightToeBase 14.322652 -0.000000 -0.000000
960
root 3.447031 36.408504 -0.247313 -507.838900 -85.166520 534.553644
Spine -22.383306 0.858426 -3.045996
Head 3.339791 11.001831 5.098849
LeftShoulder -7.925072 17.095944 24.899866
LeftArm 17.273547 -22.203321 -48.527890
LeftForeArm 23.032940 0.000000 27.806904
LeftHand -10.806306 -0.000000 -10.888929
LeftHandThumb1 -26.253704 0.000000 33.147579
RightShoulder -28.526967 -44.259080 -4.753197
RightArm 51.604140 29.895634 54.874632
RightForeArm 1.675511 0.000000 13.758239
RightHand 0.400532 -0.000000 5.978391
RightHandThumb1 -24.326973 -0.000000 -32.862282
LeftUpLeg -29.838479 13.772130 1.143311
LeftLeg 11.687759 -0.000000 -0.000000
LeftFoot -10.882236 7.438120 -17.232327
LeftToeBase -8.724531 -0.000000 0.000000
RightUpLeg -29.586177 -8.670621 -3.592072
RightLeg 8.884144 -0.000000 -0.000000
RightFoot -8.805930 -7.938444 21.031531
RightToeBase 14.400894 -0.000000 -0.000000
961
root 3.419590 36.409502 -0.245644 -508.056975 -85.083616 534.772241
Spine -22.663429 0.855236 -3.146429
Head 3.587575 11.094585 5.159745
LeftShoulder -7.977543 16.990761 25.012174
LeftArm 16.998042 -22.607843 -47.592989
LeftForeArm 22.911064 -0.000000 27.533621
LeftHand -10.881539 -0.000000 -10.989248
LeftHandThumb1 -26.253704 0.000000 33.147579
RightShoulder -28.328731 -44.098664 -5.119973
RightArm 51.375184 30.581023 54.502405
RightForeArm 1.939656 -0.000000 13.370502
RightHand 0.286444 -0.000000 5.973645
RightHandThumb1 -24.326973 -0.000000 -32.862282
LeftUpLeg -29.774060 13.740742 1.166643
LeftLeg 11.727130 -0.000000 -0.000000
LeftFoot -11.066338 7.607441 -17.277966
LeftToeBase -9.080025 -0.000000 0.000000
RightUpLeg -29.573255 -8.715388 -3.568623
RightLeg 8.900050 -0.000000 -0.000000
RightFoot -8.769132 -7.866269 20.969468
RightToeBase 14.360767 -0.000000 -0.000000
962
root 3.390233 36.409638 -0.245087 -508.246657 -85.036724 534.942421
Spine -22.921035 0.853104 -3.236398
Head 3.841024 11.120502 5.262609
LeftShoulder -7.981124 16.854647 25.151515
LeftArm 16.718188 -23.010638 -46.700739
LeftForeArm 22.853622 -0.000000 27.196295
LeftHand -10.938947 -0.000000 -11.000542
LeftHandThumb1 -26.253704 0.000000 33.147579
RightShoulder -28.188704 -43.998398 -5.435133
RightArm 51.248336 31.363866 54.262742
RightForeArm 2.149980 -0.000000 12.980019
RightHand 0.126124 -0.000000 5.931529
RightHandThumb1 -24.326973 -0.000000 -32.862282
LeftUpLeg -29.692626 13.652558 1.226726
LeftLeg 11.767502 -0.000000 -0.000000
LeftFoot -11.226388 7.807223 -17.355757
LeftToeBase -9.338663 -0.000000 0.000000
RightUpLeg -29.538496 -8.793017 -3.532004
RightLeg 8.919044 -0.000000 -0.000000
RightFoot -8.720474 -7.807693 20.910881
RightToeBase 14.249618 -0.000000 -0.000000
963
root 3.357701 36.410381 -0.245179 -508.518833 -84.992057 535.197021
Spine -23.178568 0.846856 -3.314658
Head 4.105865 11.139590 5.359498
LeftShoulder -8.006208 16.697748 25.288012
LeftArm 16.433133 -23.359028 -45.805076
LeftForeArm 22.736320 -0.000000 26.869311
LeftHand -10.861317 0.000000 -11.092009
LeftHandThumb1 -26.253704 0.000000 33.147579
RightShoulder -28.102586 -43.890397 -5.727025
RightArm 51.206132 32.108671 54.047999
RightForeArm 2.331064 -0.000000 12.498676
RightHand 0.134262 -0.000000 6.008776
RightHandThumb1 -24.326973 -0.000000 -32.862282
LeftUpLeg -29.606060 13.590774 1.284667
LeftLeg 11.788803 -0.000000 -0.000000
LeftFoot -11.296836 7.973735 -17.388234
LeftToeBase -9.651227 -0.000000 0.000000
RightUpLeg -29.494003 -8.833992 -3.502425
RightLeg 8.927930 -0.000000 -0.000000
RightFoot -8.667132 -7.779490 20.833645
RightToeBase 14.147409 -0.000000 -0.000000
964
root 3.325198 36.410934 -0.244041 -508.911063 -84.933990 535.571417
Spine -23.448133 0.859313 -3.388137
Head 4.433094 11.122948 5.455961
LeftShoulder -7.980223 16.562585 25.426718
LeftArm 16.137599 -23.825145 -44.944594
LeftForeArm 22.643565 -0.000000 26.521102
LeftHand -10.855105 0.000000 -11.189587
LeftHandThumb1 -26.253704 0.000000 33.147579
RightShoulder -27.953722 -43.780394 -6.076991
RightArm 51.090455 32.827752 53.822936
RightForeArm 2.420077 -0.000000 12.047887
RightHand 0.201994 -0.000000 6.044922
RightHandThumb1 -24.326973 -0.000000 -32.862282
LeftUpLeg -29.526417 13.584596 1.326088
LeftLeg 11.803690 -0.000000 -0.000000
LeftFoot -11.273707 8.058555 -17.391813
LeftToeBase -9.931509 -0.000000 0.000000
RightUpLeg -29.446332 -8.779488 -3.507646
RightLeg 8.940759 -0.000000 -0.000000
RightFoot -8.618629 -7.825112 20.716829
RightToeBase 13.936283 -0.000000 -0.000000
